<svg xmlns="http://www.w3.org/2000/svg" width="1400" height="820" viewBox="0 0 1400 820" role="img" aria-label="Amazon Ops Console dashboard preview">
  <defs>
    <linearGradient id="bg" x1="0" y1="0" x2="1" y2="1">
      <stop offset="0%" stop-color="#f8fafc"/>
      <stop offset="100%" stop-color="#eef2ff"/>
    </linearGradient>
    <linearGradient id="sidebar" x1="0" y1="0" x2="0" y2="1">
      <stop offset="0%" stop-color="#ffffff"/>
      <stop offset="100%" stop-color="#f8fafc"/>
    </linearGradient>
    <linearGradient id="accent" x1="0" y1="0" x2="1" y2="1">
      <stop offset="0%" stop-color="#2563eb"/>
      <stop offset="100%" stop-color="#1d4ed8"/>
    </linearGradient>
    <filter id="shadow" x="-20%" y="-20%" width="140%" height="140%">
      <feDropShadow dx="0" dy="12" stdDeviation="18" flood-color="#0f172a" flood-opacity="0.08"/>
    </filter>
  </defs>

  <rect width="1400" height="820" fill="url(#bg)"/>

  <rect x="30" y="28" width="280" height="764" rx="26" fill="url(#sidebar)" stroke="#e5e7eb"/>
  <circle cx="84" cy="86" r="28" fill="#ffffff" stroke="#c7d2fe"/>
  <text x="84" y="83" text-anchor="middle" font-size="16" font-family="Segoe UI, Arial, sans-serif" font-weight="700" fill="#2563eb">AO</text>
  <text x="84" y="101" text-anchor="middle" font-size="10" font-family="Segoe UI, Arial, sans-serif" fill="#2563eb">&gt;_</text>
  <text x="126" y="88" font-size="20" font-family="Segoe UI, Arial, sans-serif" font-weight="700" fill="#111827">Amazon Ops Console</text>

  <g font-family="Segoe UI, Arial, sans-serif" font-size="16" font-weight="600">
    <rect x="52" y="142" width="236" height="48" rx="14" fill="#eff6ff"/>
    <circle cx="76" cy="166" r="10" fill="#2563eb"/>
    <text x="100" y="171" fill="#2563eb">Dashboard</text>

    <rect x="52" y="202" width="236" height="48" rx="14" fill="#ffffff"/>
    <circle cx="76" cy="226" r="10" fill="#93c5fd"/>
    <text x="100" y="231" fill="#374151">API Test</text>

    <rect x="52" y="262" width="236" height="48" rx="14" fill="#ffffff"/>
    <circle cx="76" cy="286" r="10" fill="#93c5fd"/>
    <text x="100" y="291" fill="#374151">Orders</text>

    <rect x="52" y="322" width="236" height="48" rx="14" fill="#ffffff"/>
    <circle cx="76" cy="346" r="10" fill="#93c5fd"/>
    <text x="100" y="351" fill="#374151">Inventory</text>

    <rect x="52" y="382" width="236" height="48" rx="14" fill="#ffffff"/>
    <circle cx="76" cy="406" r="10" fill="#93c5fd"/>
    <text x="100" y="411" fill="#374151">Reports</text>

    <rect x="52" y="442" width="236" height="48" rx="14" fill="#ffffff"/>
    <circle cx="76" cy="466" r="10" fill="#93c5fd"/>
    <text x="100" y="471" fill="#374151">Logs</text>
  </g>

  <text x="350" y="74" font-size="14" font-family="Segoe UI, Arial, sans-serif" font-weight="700" fill="#6b7280">OPERATIONS OVERVIEW</text>
  <text x="350" y="116" font-size="38" font-family="Segoe UI, Arial, sans-serif" font-weight="700" fill="#111827">Executive Command Center</text>
  <text x="350" y="148" font-size="16" font-family="Segoe UI, Arial, sans-serif" fill="#4b5563">Data-driven operational dashboard for Amazon order monitoring and automation workflows.</text>

  <g filter="url(#shadow)">
    <rect x="350" y="190" width="230" height="120" rx="20" fill="#ffffff"/>
    <rect x="600" y="190" width="230" height="120" rx="20" fill="#ffffff"/>
    <rect x="850" y="190" width="230" height="120" rx="20" fill="#ffffff"/>
    <rect x="1100" y="190" width="230" height="120" rx="20" fill="#ffffff"/>
  </g>

  <g font-family="Segoe UI, Arial, sans-serif">
    <text x="376" y="226" font-size="12" font-weight="700" fill="#6b7280">TOTAL ORDERS</text>
    <text x="376" y="278" font-size="40" font-weight="700" fill="#2563eb">3</text>

    <text x="626" y="226" font-size="12" font-weight="700" fill="#6b7280">TOTAL REVENUE</text>
    <text x="626" y="278" font-size="40" font-weight="700" fill="#111827">$202.46</text>

    <text x="876" y="226" font-size="12" font-weight="700" fill="#6b7280">TODAY'S ORDERS</text>
    <text x="876" y="278" font-size="40" font-weight="700" fill="#16a34a">1</text>

    <text x="1126" y="226" font-size="12" font-weight="700" fill="#6b7280">LAST SYNC</text>
    <text x="1126" y="265" font-size="18" font-weight="700" fill="#111827">2026-02-28</text>
    <text x="1126" y="289" font-size="16" fill="#4b5563">04:44</text>
  </g>

  <g filter="url(#shadow)">
    <rect x="350" y="338" width="470" height="214" rx="22" fill="#ffffff"/>
    <rect x="844" y="338" width="486" height="214" rx="22" fill="#ffffff"/>
  </g>

  <text x="378" y="374" font-size="22" font-family="Segoe UI, Arial, sans-serif" font-weight="700" fill="#111827">Order Status Distribution</text>
  <circle cx="500" cy="454" r="72" fill="none" stroke="#2563eb" stroke-width="30" stroke-dasharray="280 180" transform="rotate(-90 500 454)"/>
  <circle cx="500" cy="454" r="72" fill="none" stroke="#f59e0b" stroke-width="30" stroke-dasharray="85 375" stroke-dashoffset="-280" transform="rotate(-90 500 454)"/>
  <circle cx="500" cy="454" r="40" fill="#ffffff"/>
  <text x="500" y="448" text-anchor="middle" font-size="26" font-family="Segoe UI, Arial, sans-serif" font-weight="700" fill="#111827">3</text>
  <text x="500" y="470" text-anchor="middle" font-size="12" font-family="Segoe UI, Arial, sans-serif" fill="#6b7280">ORDERS</text>

  <circle cx="625" cy="422" r="7" fill="#f59e0b"/>
  <text x="642" y="427" font-size="16" font-family="Segoe UI, Arial, sans-serif" font-weight="600" fill="#111827">Pending</text>
  <text x="642" y="449" font-size="14" font-family="Segoe UI, Arial, sans-serif" fill="#4b5563">1</text>

  <circle cx="625" cy="486" r="7" fill="#2563eb"/>
  <text x="642" y="491" font-size="16" font-family="Segoe UI, Arial, sans-serif" font-weight="600" fill="#111827">Unshipped</text>
  <text x="642" y="513" font-size="14" font-family="Segoe UI, Arial, sans-serif" fill="#4b5563">2</text>

  <text x="872" y="374" font-size="22" font-family="Segoe UI, Arial, sans-serif" font-weight="700" fill="#111827">Recent Orders</text>
  <g font-family="Segoe UI, Arial, sans-serif" font-size="13" fill="#6b7280" font-weight="700">
    <text x="872" y="406">ORDER ID</text>
    <text x="1030" y="406">STATUS</text>
    <text x="1130" y="406">PURCHASE DATE</text>
    <text x="1260" y="406">SYNCED</text>
  </g>
  <line x1="872" y1="418" x2="1302" y2="418" stroke="#e5e7eb"/>

  <g font-family="Segoe UI, Arial, sans-serif" font-size="14">
    <text x="872" y="452" fill="#111827">DEMO-001</text>
    <rect x="1020" y="436" width="82" height="24" rx="12" fill="#fef3c7"/>
    <text x="1061" y="452" text-anchor="middle" fill="#b45309" font-weight="700">Pending</text>
    <text x="1130" y="452" fill="#111827">2026-02-28</text>
    <text x="1260" y="452" fill="#111827">just now</text>

    <line x1="872" y1="470" x2="1302" y2="470" stroke="#f1f5f9"/>

    <text x="872" y="504" fill="#111827">902-1845936-5435065</text>
    <rect x="1012" y="488" width="98" height="24" rx="12" fill="#dbeafe"/>
    <text x="1061" y="504" text-anchor="middle" fill="#1d4ed8" font-weight="700">Unshipped</text>
    <text x="1130" y="504" fill="#111827">1970-01-19</text>
    <text x="1260" y="504" fill="#111827">1 min ago</text>
  </g>

  <g filter="url(#shadow)">
    <rect x="350" y="578" width="470" height="184" rx="22" fill="#ffffff"/>
    <rect x="844" y="578" width="486" height="184" rx="22" fill="#ffffff"/>
  </g>

  <text x="378" y="614" font-size="22" font-family="Segoe UI, Arial, sans-serif" font-weight="700" fill="#111827">Data Quality Warning</text>
  <rect x="378" y="636" width="210" height="34" rx="10" fill="#fff7ed" stroke="#fdba74"/>
  <text x="394" y="658" font-size="14" font-family="Segoe UI, Arial, sans-serif" font-weight="700" fill="#c2410c">Data Issue Detected</text>
  <text x="378" y="704" font-size="16" font-family="Segoe UI, Arial, sans-serif" fill="#4b5563">2 orders have invalid purchase date (1970)</text>

  <text x="872" y="614" font-size="22" font-family="Segoe UI, Arial, sans-serif" font-weight="700" fill="#111827">Sync Activity</text>
  <g font-family="Segoe UI, Arial, sans-serif" font-size="13" fill="#6b7280" font-weight="700">
    <text x="872" y="646">TIME</text>
    <text x="950" y="646">STATUS</text>
    <text x="1060" y="646">MESSAGE</text>
  </g>
  <line x1="872" y1="658" x2="1302" y2="658" stroke="#e5e7eb"/>
  <text x="872" y="694" font-size="14" font-family="Segoe UI, Arial, sans-serif" fill="#111827">04:44</text>
  <rect x="940" y="678" width="88" height="24" rx="12" fill="#dcfce7"/>
  <text x="984" y="694" text-anchor="middle" font-size="13" font-family="Segoe UI, Arial, sans-serif" font-weight="700" fill="#15803d">SUCCESS</text>
  <text x="1060" y="694" font-size="14" font-family="Segoe UI, Arial, sans-serif" fill="#111827">3 orders synced</text>
</svg>
